<svg width="32" height="39" viewBox="0 0 32 39" fill="none" xmlns="http://www.w3.org/2000/svg">
<rect width="32" height="39" rx="8" fill="#AB00FC" fill-opacity="0.1"/>
<path d="M20.012 23.632C20.0973 23.632 20.172 23.6667 20.236 23.736L20.852 24.4C20.3827 24.944 19.812 25.368 19.14 25.672C18.4733 25.976 17.6653 26.128 16.716 26.128C15.8947 26.128 15.148 25.9867 14.476 25.704C13.804 25.416 13.2307 25.016 12.756 24.504C12.2813 23.9867 11.9133 23.368 11.652 22.648C11.3907 21.928 11.26 21.136 11.26 20.272C11.26 19.408 11.396 18.616 11.668 17.896C11.94 17.176 12.3213 16.5573 12.812 16.04C13.308 15.5227 13.9 15.1227 14.588 14.84C15.276 14.552 16.036 14.408 16.868 14.408C17.684 14.408 18.404 14.5387 19.028 14.8C19.652 15.0613 20.2013 15.416 20.676 15.864L20.164 16.576C20.132 16.6293 20.0893 16.6747 20.036 16.712C19.988 16.744 19.9213 16.76 19.836 16.76C19.74 16.76 19.6227 16.7093 19.484 16.608C19.3453 16.5013 19.164 16.384 18.94 16.256C18.716 16.128 18.436 16.0133 18.1 15.912C17.764 15.8053 17.3507 15.752 16.86 15.752C16.268 15.752 15.7267 15.856 15.236 16.064C14.7453 16.2667 14.3213 16.5627 13.964 16.952C13.612 17.3413 13.3373 17.816 13.14 18.376C12.9427 18.936 12.844 19.568 12.844 20.272C12.844 20.9867 12.9453 21.624 13.148 22.184C13.356 22.744 13.636 23.2187 13.988 23.608C14.3453 23.992 14.764 24.2853 15.244 24.488C15.7293 24.6907 16.252 24.792 16.812 24.792C17.1533 24.792 17.46 24.7733 17.732 24.736C18.0093 24.6933 18.2627 24.6293 18.492 24.544C18.7267 24.4587 18.9427 24.352 19.14 24.224C19.3427 24.0907 19.5427 23.9333 19.74 23.752C19.8307 23.672 19.9213 23.632 20.012 23.632Z" fill="#212121"/>
</svg>
