<svg width="32" height="39" viewBox="0 0 32 39" fill="none" xmlns="http://www.w3.org/2000/svg">
<rect width="32" height="39" rx="8" fill="#E1F4FA"/>
<path d="M15.888 24.768C16.3627 24.768 16.7867 24.688 17.16 24.528C17.5333 24.368 17.848 24.144 18.104 23.856C18.3653 23.568 18.5627 23.224 18.696 22.824C18.8347 22.424 18.904 21.984 18.904 21.504V14.536H20.448V21.504C20.448 22.1653 20.3413 22.7787 20.128 23.344C19.92 23.9093 19.6187 24.4 19.224 24.816C18.8347 25.2267 18.3573 25.5493 17.792 25.784C17.2267 26.0187 16.592 26.136 15.888 26.136C15.184 26.136 14.5493 26.0187 13.984 25.784C13.4187 25.5493 12.9387 25.2267 12.544 24.816C12.1493 24.4 11.8453 23.9093 11.632 23.344C11.424 22.7787 11.32 22.1653 11.32 21.504V14.536H12.864V21.496C12.864 21.976 12.9307 22.416 13.064 22.816C13.2027 23.216 13.4 23.56 13.656 23.848C13.9173 24.136 14.2347 24.3627 14.608 24.528C14.9867 24.688 15.4133 24.768 15.888 24.768Z" fill="#212121"/>
</svg>
